<svg xmlns="http://www.w3.org/2000/svg" viewBox="0 0 101 18" width="101" height="18">
	<style>
		tspan { white-space:pre }
	</style>
	<g id="Folder 7">
		<path id="TOUCH " fill="#ffffff" d="M23.87 4.91L23.87 0.76L11.13 0.76L11.13 4.91L14.9 4.91L14.9 17L20.1 17L20.1 4.91L23.87 4.91ZM24.51 8.9Q24.51 6.67 24.88 5.07Q25.27 3.44 26.16 2.4Q27.07 1.36 28.54 0.86Q30.02 0.37 32.18 0.37Q34.37 0.37 35.82 0.86Q37.29 1.36 38.18 2.4Q39.09 3.44 39.46 5.07Q39.85 6.67 39.85 8.9Q39.85 11.02 39.5 12.62Q39.16 14.21 38.27 15.27Q37.4 16.33 35.91 16.87Q34.43 17.39 32.18 17.39Q29.93 17.39 28.44 16.87Q26.96 16.33 26.07 15.27Q25.21 14.21 24.86 12.62Q24.51 11.02 24.51 8.9ZM30.1 6.19L30.1 12.95L32.27 12.95Q33.35 12.95 33.81 12.71Q34.28 12.45 34.28 11.56L34.28 4.81L32.1 4.81Q31.06 4.81 30.58 5.07Q30.1 5.3 30.1 6.19ZM41.28 9.87L41.28 0.76L46.48 0.76L46.48 12.95L48.32 12.95Q49.31 12.95 49.66 12.69Q50.03 12.43 50.03 11.56L50.03 0.76L55.23 0.76L55.23 9.87Q55.23 11.95 54.95 13.38Q54.69 14.81 53.91 15.72Q53.15 16.61 51.78 17Q50.42 17.39 48.25 17.39Q46.09 17.39 44.72 17Q43.36 16.61 42.58 15.72Q41.82 14.83 41.54 13.4Q41.28 11.95 41.28 9.87ZM68.22 12.34L68.61 16.72Q66.94 17.39 64.5 17.39Q62.18 17.39 60.66 16.89Q59.15 16.37 58.26 15.33Q57.37 14.29 57 12.69Q56.66 11.09 56.66 8.9Q56.66 6.78 56.98 5.2Q57.33 3.59 58.19 2.53Q59.06 1.45 60.53 0.91Q62.03 0.37 64.3 0.37Q64.8 0.37 65.41 0.43Q66.03 0.47 66.62 0.56Q67.23 0.65 67.75 0.78Q68.29 0.89 68.61 1.04L67.83 5.02Q66.1 4.65 64.73 4.65Q63.33 4.65 62.79 4.91Q62.24 5.17 62.24 5.95L62.24 12.75Q62.74 12.86 63.24 12.93Q63.76 12.97 64.3 12.97Q66.47 12.97 68.22 12.34ZM79.53 17L84.73 17L84.73 0.76L79.53 0.76L79.53 6.5L75.63 6.5L75.63 0.76L70.43 0.76L70.43 17L75.63 17L75.63 11.26L79.53 11.26L79.53 17Z" />
	</g>
</svg>